<svg width="30" height="30" viewBox="0 0 30 30" fill="none" xmlns="http://www.w3.org/2000/svg">
<path d="M12.7267 3.6001C5.1475 3.6001 0.600098 9.6799 0.600098 12.7201C0.600098 15.7603 2.1157 18.0403 5.1475 18.0403C8.1793 18.0403 9.6955 18.7999 9.6955 21.0799C9.6955 24.1195 11.9689 26.3995 15.0007 26.3995C24.8539 26.3995 29.4007 21.0799 29.4007 15.7603C29.4001 6.6403 21.8197 3.6001 12.7267 3.6001ZM10.8319 6.6403C11.081 6.64061 11.3277 6.69 11.5577 6.78563C11.7878 6.88127 11.9968 7.02128 12.1727 7.19767C12.3487 7.37407 12.4881 7.58339 12.5832 7.81369C12.6783 8.04399 12.727 8.29075 12.7267 8.5399C12.7267 9.5899 11.8783 10.4401 10.8319 10.4401C9.7855 10.4401 8.9371 9.5893 8.9371 8.5399C8.93678 8.29075 8.98554 8.04399 9.0806 7.81369C9.17565 7.58339 9.31513 7.37407 9.49108 7.19767C9.66703 7.02128 9.876 6.88127 10.1061 6.78563C10.3361 6.69 10.5828 6.64061 10.8319 6.6403ZM16.8943 6.6403C17.1434 6.64061 17.3901 6.69 17.6201 6.78563C17.8502 6.88127 18.0592 7.02128 18.2351 7.19767C18.4111 7.37407 18.5505 7.58339 18.6456 7.81369C18.7407 8.04399 18.7894 8.29075 18.7891 8.5399C18.7895 8.78909 18.7408 9.03592 18.6458 9.26629C18.5508 9.49666 18.4113 9.70605 18.2353 9.88251C18.0594 10.059 17.8504 10.199 17.6203 10.2947C17.3902 10.3904 17.1435 10.4398 16.8943 10.4401C16.6452 10.4397 16.3985 10.3902 16.1685 10.2945C15.9385 10.1988 15.7295 10.0588 15.5537 9.8823C15.3778 9.70585 15.2383 9.49648 15.1434 9.26615C15.0484 9.03582 14.9997 8.78904 15.0001 8.5399C14.9995 8.03683 15.1987 7.55411 15.5539 7.19788C15.9091 6.84166 16.3912 6.64109 16.8943 6.6403ZM22.9579 9.6799C23.2071 9.68013 23.4539 9.72948 23.6841 9.82512C23.9142 9.92075 24.1233 10.0608 24.2993 10.2373C24.4753 10.4137 24.6149 10.6232 24.7099 10.8536C24.805 11.084 24.8537 11.3309 24.8533 11.5801C24.8537 11.8293 24.805 12.0762 24.7099 12.3065C24.6148 12.5369 24.4753 12.7463 24.2993 12.9227C24.1233 13.0991 23.9142 13.2391 23.684 13.3347C23.4539 13.4303 23.2071 13.4795 22.9579 13.4797C22.7088 13.4795 22.4621 13.4301 22.232 13.3345C22.002 13.2389 21.793 13.0989 21.6171 12.9225C21.4412 12.746 21.3018 12.5367 21.2068 12.3064C21.1119 12.076 21.0632 11.8292 21.0637 11.5801C21.0632 11.3309 21.1119 11.0841 21.2068 10.8537C21.3018 10.6234 21.4412 10.414 21.6171 10.2375C21.793 10.0611 22.0019 9.92098 22.232 9.8253C22.4621 9.72962 22.7087 9.68021 22.9579 9.6799ZM5.5267 11.2003C5.77579 11.2005 6.02239 11.2498 6.25241 11.3454C6.48243 11.441 6.69136 11.581 6.86727 11.7573C7.04318 11.9337 7.18261 12.143 7.27761 12.3732C7.3726 12.6035 7.42129 12.8502 7.4209 13.0993C7.4209 14.1493 6.5725 14.9995 5.5267 14.9995C4.4809 14.9995 3.6319 14.1487 3.6319 13.0993C3.63142 12.5962 3.83076 12.1136 4.18609 11.7575C4.54142 11.4013 5.02363 11.2009 5.5267 11.2003ZM15.0001 18.7999C16.2559 18.7999 17.2735 19.8199 17.2735 21.0805C17.2735 22.3393 16.2559 23.3599 15.0001 23.3599C13.7443 23.3599 12.7267 22.3393 12.7267 21.0805C12.7261 20.7815 12.7845 20.4852 12.8985 20.2088C13.0125 19.9323 13.1798 19.681 13.3909 19.4692C13.602 19.2574 13.8528 19.0893 14.1289 18.9744C14.405 18.8596 14.7011 18.8003 15.0001 18.7999Z" fill="url(#paint0_linear_452_31)"/>
<defs>
<linearGradient id="paint0_linear_452_31" x1="15.0004" y1="3.6001" x2="15.0004" y2="26.3995" gradientUnits="userSpaceOnUse">
<stop stop-color="#8A6BDB" stop-opacity="0.987369"/>
<stop offset="1" stop-color="#B247E3"/>
</linearGradient>
</defs>
</svg>
