<svg width="37" height="30" viewBox="0 0 37 30" fill="none" xmlns="http://www.w3.org/2000/svg">
<path d="M7.08333 5.6665C8.23393 5.6665 9.16667 4.883 9.16667 3.9165C9.16667 2.95001 8.23393 2.1665 7.08333 2.1665C5.93274 2.1665 5 2.95001 5 3.9165C5 4.883 5.93274 5.6665 7.08333 5.6665Z" fill="url(#paint0_linear_452_65)" stroke="url(#paint1_linear_452_65)" stroke-miterlimit="10"/>
<path d="M2.9165 11.4999C2.9165 11.4999 3.61095 8.98519 4.99984 8.40186C6.38873 7.81852 7.77761 7.81852 9.1665 8.40186C10.5554 8.98519 11.2498 11.4999 11.2498 11.4999" fill="url(#paint2_linear_452_65)"/>
<path d="M2.9165 11.4999C2.9165 11.4999 3.61095 8.98519 4.99984 8.40186C6.38873 7.81852 7.77761 7.81852 9.1665 8.40186C10.5554 8.98519 11.2498 11.4999 11.2498 11.4999" stroke="url(#paint3_linear_452_65)" stroke-miterlimit="10" stroke-linecap="round" stroke-linejoin="round"/>
<path d="M31.3831 11.1055C32.5337 11.1055 33.4665 10.322 33.4665 9.35547C33.4665 8.38897 32.5337 7.60547 31.3831 7.60547C30.2325 7.60547 29.2998 8.38897 29.2998 9.35547C29.2998 10.322 30.2325 11.1055 31.3831 11.1055Z" fill="url(#paint4_linear_452_65)" stroke="url(#paint5_linear_452_65)" stroke-miterlimit="10"/>
<path d="M27.2166 16.9389C27.2166 16.9389 27.911 14.4242 29.2999 13.8408C30.6888 13.2575 32.0777 13.2575 33.4666 13.8408C34.8554 14.4242 35.5499 16.9383 35.5499 16.9383" fill="url(#paint6_linear_452_65)"/>
<path d="M27.2166 16.9389C27.2166 16.9389 27.911 14.4242 29.2999 13.8408C30.6888 13.2575 32.0777 13.2575 33.4666 13.8408C34.8554 14.4242 35.5499 16.9383 35.5499 16.9383" stroke="url(#paint7_linear_452_65)" stroke-miterlimit="10" stroke-linecap="round" stroke-linejoin="round"/>
<path d="M13.3285 23.1714C14.479 23.1714 15.4118 22.3879 15.4118 21.4214C15.4118 20.4549 14.479 19.6714 13.3285 19.6714C12.1779 19.6714 11.2451 20.4549 11.2451 21.4214C11.2451 22.3879 12.1779 23.1714 13.3285 23.1714Z" fill="url(#paint8_linear_452_65)" stroke="url(#paint9_linear_452_65)" stroke-miterlimit="10"/>
<path d="M9.16173 29.0047C9.16173 29.0047 9.85617 26.4899 11.2451 25.9066C12.6339 25.3233 14.0228 25.3233 15.4117 25.9066C16.8006 26.4899 17.4951 29.0041 17.4951 29.0041L9.16173 29.0047ZM28.9944 5.746C26.0645 2.84275 21.6909 1 16.8055 1C14.8819 1 13.0388 1.28583 11.3312 1.80908L28.9944 5.746ZM19.8839 27.5843C25.5874 26.6486 30.2048 23.1643 31.986 18.5998L19.8839 27.5843ZM0.893669 13.243C0.85338 13.6333 0.833222 14.0249 0.833252 14.4167C0.833252 19.0682 3.65131 23.1667 7.93186 25.5741" fill="url(#paint10_linear_452_65)"/>
<path d="M0.893669 13.243C0.85338 13.6333 0.833222 14.0249 0.833252 14.4167C0.833252 19.0682 3.65131 23.1667 7.93186 25.5741M9.16172 29.0047C9.16172 29.0047 9.85617 26.4899 11.2451 25.9066C12.6339 25.3233 14.0228 25.3233 15.4117 25.9066C16.8006 26.4899 17.4951 29.0041 17.4951 29.0041L9.16172 29.0047ZM28.9944 5.746C26.0645 2.84275 21.6909 1 16.8055 1C14.8819 1 13.0388 1.28583 11.3312 1.80908L28.9944 5.746ZM19.8839 27.5843C25.5874 26.6486 30.2048 23.1643 31.986 18.5998L19.8839 27.5843Z" stroke="url(#paint11_linear_452_65)" stroke-miterlimit="10" stroke-linecap="round" stroke-linejoin="round"/>
<defs>
<linearGradient id="paint0_linear_452_65" x1="7.08333" y1="2.1665" x2="7.08333" y2="5.6665" gradientUnits="userSpaceOnUse">
<stop stop-color="#B247E3"/>
<stop offset="1" stop-color="#8A6BDB" stop-opacity="0.987369"/>
</linearGradient>
<linearGradient id="paint1_linear_452_65" x1="7.08333" y1="2.1665" x2="7.08333" y2="5.6665" gradientUnits="userSpaceOnUse">
<stop stop-color="#B247E3"/>
<stop offset="1" stop-color="#8A6BDB" stop-opacity="0.987369"/>
</linearGradient>
<linearGradient id="paint2_linear_452_65" x1="7.08317" y1="7.96436" x2="7.08317" y2="11.4999" gradientUnits="userSpaceOnUse">
<stop stop-color="#B247E3"/>
<stop offset="1" stop-color="#8A6BDB" stop-opacity="0.987369"/>
</linearGradient>
<linearGradient id="paint3_linear_452_65" x1="7.08317" y1="7.96436" x2="7.08317" y2="11.4999" gradientUnits="userSpaceOnUse">
<stop stop-color="#B247E3"/>
<stop offset="1" stop-color="#8A6BDB" stop-opacity="0.987369"/>
</linearGradient>
<linearGradient id="paint4_linear_452_65" x1="31.3831" y1="7.60547" x2="31.3831" y2="11.1055" gradientUnits="userSpaceOnUse">
<stop stop-color="#B247E3"/>
<stop offset="1" stop-color="#8A6BDB" stop-opacity="0.987369"/>
</linearGradient>
<linearGradient id="paint5_linear_452_65" x1="31.3831" y1="7.60547" x2="31.3831" y2="11.1055" gradientUnits="userSpaceOnUse">
<stop stop-color="#B247E3"/>
<stop offset="1" stop-color="#8A6BDB" stop-opacity="0.987369"/>
</linearGradient>
<linearGradient id="paint6_linear_452_65" x1="31.3832" y1="13.4033" x2="31.3832" y2="16.9389" gradientUnits="userSpaceOnUse">
<stop stop-color="#B247E3"/>
<stop offset="1" stop-color="#8A6BDB" stop-opacity="0.987369"/>
</linearGradient>
<linearGradient id="paint7_linear_452_65" x1="31.3832" y1="13.4033" x2="31.3832" y2="16.9389" gradientUnits="userSpaceOnUse">
<stop stop-color="#B247E3"/>
<stop offset="1" stop-color="#8A6BDB" stop-opacity="0.987369"/>
</linearGradient>
<linearGradient id="paint8_linear_452_65" x1="13.3285" y1="19.6714" x2="13.3285" y2="23.1714" gradientUnits="userSpaceOnUse">
<stop stop-color="#B247E3"/>
<stop offset="1" stop-color="#8A6BDB" stop-opacity="0.987369"/>
</linearGradient>
<linearGradient id="paint9_linear_452_65" x1="13.3285" y1="19.6714" x2="13.3285" y2="23.1714" gradientUnits="userSpaceOnUse">
<stop stop-color="#B247E3"/>
<stop offset="1" stop-color="#8A6BDB" stop-opacity="0.987369"/>
</linearGradient>
<linearGradient id="paint10_linear_452_65" x1="16.4096" y1="1" x2="16.4096" y2="29.0047" gradientUnits="userSpaceOnUse">
<stop stop-color="#B247E3"/>
<stop offset="1" stop-color="#8A6BDB" stop-opacity="0.987369"/>
</linearGradient>
<linearGradient id="paint11_linear_452_65" x1="16.4096" y1="1" x2="16.4096" y2="29.0047" gradientUnits="userSpaceOnUse">
<stop stop-color="#B247E3"/>
<stop offset="1" stop-color="#8A6BDB" stop-opacity="0.987369"/>
</linearGradient>
</defs>
</svg>
