<svg width="31" height="27" viewBox="0 0 31 27" fill="none" xmlns="http://www.w3.org/2000/svg">
<g clip-path="url(#clip0_135_84)">
<path d="M16.5291 26.2812L30.0734 8.34409C30.2086 8.16559 30.3159 7.95351 30.3891 7.72C30.4623 7.48649 30.5 7.23614 30.5 6.9833C30.5 6.73047 30.4623 6.48012 30.3891 6.2466C30.3159 6.01309 30.2086 5.80101 30.0734 5.62252L26.5157 0.909C26.2987 0.620739 26.0408 0.392053 25.7569 0.236063C25.473 0.0800743 25.1686 -0.000147764 24.8612 2.0432e-07H6.15811C5.85047 8.43417e-05 5.54586 0.0804027 5.26167 0.236369C4.97747 0.392336 4.71926 0.620896 4.50178 0.909L0.931663 5.63074C0.659084 5.98439 0.503751 6.46692 0.499827 6.97221C0.496044 7.47752 0.644002 7.96413 0.911155 8.325L0.931663 8.35216L14.476 26.2895C14.6108 26.4685 14.7709 26.6106 14.9473 26.7075C15.1236 26.8044 15.3126 26.8543 15.5036 26.8543C15.6945 26.8543 15.8836 26.8044 16.0599 26.7075C16.2362 26.6106 16.3964 26.4685 16.5312 26.2895L16.5291 26.2812Z" fill="url(#paint0_linear_135_84)"/>
<path opacity="0.4" d="M4.39294 1.05316C4.63372 0.732772 4.93097 0.496842 5.25785 0.366669C5.58473 0.236495 5.93095 0.216178 6.26525 0.307552L29.7858 6.624C29.9726 6.67514 30.1364 6.82209 30.2416 7.03272C30.3467 7.24336 30.3846 7.50055 30.3469 7.74807C30.3372 7.81269 30.322 7.87566 30.3017 7.93583C30.4627 7.57128 30.5276 7.14625 30.4863 6.72752C30.445 6.30878 30.2998 5.92009 30.0735 5.62252L26.5158 0.909C26.2988 0.620739 26.041 0.392053 25.7571 0.236063C25.4731 0.0800742 25.1688 -0.000147764 24.8614 2.0432e-07H6.15826C5.53697 0.000238297 4.94119 0.327206 4.50193 0.909L4.39294 1.05331V1.05316Z" fill="url(#paint1_linear_135_84)"/>
<path opacity="0.4" d="M25.3197 1.3798L23.9509 5.06204L29.7857 6.624C29.9724 6.67511 30.1363 6.82204 30.2415 7.03268C30.3467 7.24332 30.3846 7.50053 30.3469 7.74807C30.3371 7.81269 30.322 7.87566 30.3017 7.93583C30.4626 7.57129 30.5276 7.14625 30.4863 6.72752C30.445 6.30879 30.2998 5.92009 30.0735 5.62252L26.5158 0.909003C26.2988 0.620742 26.0409 0.392056 25.757 0.236067C25.4731 0.0800774 25.1687 -0.000144569 24.8614 3.39894e-06H24.6805C24.8031 -0.000431259 24.9236 0.040829 25.0307 0.119827C25.1377 0.198825 25.2276 0.312912 25.2918 0.451145C25.3559 0.589378 25.3922 0.747121 25.3971 0.909245C25.402 1.07137 25.3753 1.23244 25.3197 1.377V1.3798Z" fill="url(#paint2_linear_135_84)"/>
<path d="M30.3017 7.94649C30.3773 7.71478 30.3805 7.45276 30.3103 7.21801C30.2402 6.98326 30.1025 6.79498 29.9276 6.69456C29.8822 6.66774 29.8346 6.6477 29.7858 6.63482L23.9508 5.06152L16.0997 26.0415C15.9981 26.3134 15.8266 26.5285 15.6161 26.6482C15.4055 26.7678 15.1697 26.7843 14.9508 26.6946C15.2154 26.8396 15.5064 26.8776 15.7873 26.804C16.0682 26.7304 16.3264 26.5484 16.5293 26.2809L30.0734 8.34389C30.1636 8.22679 30.2405 8.09292 30.3015 7.94649H30.3017Z" fill="url(#paint3_linear_135_84)"/>
</g>
<defs>
<linearGradient id="paint0_linear_135_84" x1="8.90823" y1="17.3949" x2="18.8536" y2="4.38361" gradientUnits="userSpaceOnUse">
<stop stop-color="#7A3292"/>
<stop offset="1" stop-color="#C44EFA"/>
</linearGradient>
<linearGradient id="paint1_linear_135_84" x1="17.2363" y1="4.03648" x2="17.6027" y2="2.89384" gradientUnits="userSpaceOnUse">
<stop offset="0.07" stop-color="#ECC4FF"/>
<stop offset="0.89" stop-color="#BF4CF4" stop-opacity="0.98"/>
</linearGradient>
<linearGradient id="paint2_linear_135_84" x1="25.219" y1="17.6624" x2="33.4334" y2="22.9668" gradientUnits="userSpaceOnUse">
<stop offset="0.07" stop-color="#ECC4FF"/>
<stop offset="0.89" stop-color="#990ED9"/>
</linearGradient>
<linearGradient id="paint3_linear_135_84" x1="16.6482" y1="13.656" x2="27.2081" y2="16.4171" gradientUnits="userSpaceOnUse">
<stop stop-color="#43075F"/>
<stop offset="0.98" stop-color="#BF4CF4" stop-opacity="0.98"/>
</linearGradient>
<clipPath id="clip0_135_84">
<rect width="30" height="27" fill="white" transform="translate(0.5)"/>
</clipPath>
</defs>
</svg>
