<svg width="20" height="30" viewBox="0 0 20 30" fill="none" xmlns="http://www.w3.org/2000/svg">
<path d="M0.540545 20.5425C0.538137 19.3001 0.781406 18.0693 1.25636 16.9212C1.73131 15.7731 2.42858 14.7302 3.30805 13.8525C4.18552 12.9727 5.22835 12.2752 6.37651 11.8001C7.52467 11.3249 8.75547 11.0816 9.99805 11.0841C11.5068 11.0804 12.9914 11.4404 14.3271 12.1301V12.4078H14.8271L15.0831 11.9784C14.9984 11.9279 14.9131 11.8787 14.8271 11.8309V8.01753C14.8239 6.74359 14.3161 5.5228 13.415 4.62234C12.5138 3.72188 11.2926 3.21507 10.0187 3.21285M0.540545 20.5425L6.26673 4.2655M0.540545 20.5425C0.538488 21.784 0.781943 23.0136 1.2569 24.1606C1.73186 25.3076 2.42894 26.3494 3.30805 27.226L0.540545 20.5425ZM10.0187 3.21285L10.0202 2.71285C10.0201 2.71285 10.02 2.71285 10.0199 2.71285C10.0198 2.71285 10.0197 2.71285 10.0195 2.71285L10.0187 3.21285ZM10.0187 3.21285C9.38737 3.21094 8.76195 3.33424 8.17862 3.57562C7.59528 3.817 7.0656 4.17167 6.62023 4.6191M6.62023 4.6191L6.26759 4.26463C6.2673 4.26492 6.26701 4.26521 6.26673 4.2655M6.62023 4.6191L6.26587 4.26636C6.26615 4.26607 6.26644 4.26578 6.26673 4.2655M6.62023 4.6191C5.70711 5.52753 5.2093 6.73878 5.2093 8.01753V8.61628H4.7093V8.01753C4.7093 6.60715 5.25911 5.26839 6.26673 4.2655M9.99992 27.2872H10.0006C11.7885 27.2848 13.5024 26.5735 14.7667 25.3093C16.0309 24.0451 16.7422 22.3311 16.7446 20.5432V20.5422C16.7433 18.7539 16.0323 17.0392 14.7678 15.7747C13.5033 14.5102 11.7886 13.7992 10.0003 13.7978H9.99992C6.28128 13.7978 3.25523 16.8239 3.25523 20.5425C3.25523 24.2612 6.28128 27.2872 9.99992 27.2872ZM12.1812 20.5716C12.1812 21.3182 11.906 21.8415 11.5212 22.1832C11.1272 22.5331 10.5877 22.7189 10.0318 22.7189C9.47588 22.7189 8.93637 22.5331 8.54239 22.1832C8.15763 21.8415 7.88242 21.3182 7.88242 20.5716C7.88242 19.8233 8.15785 19.2989 8.54268 18.9566C8.93668 18.6061 9.4761 18.4201 10.0318 18.4201C10.5875 18.4201 11.1269 18.6061 11.5209 18.9566C11.9057 19.2989 12.1812 19.8233 12.1812 20.5716Z" fill="url(#paint0_linear_453_104)" stroke="url(#paint1_linear_453_104)"/>
<defs>
<linearGradient id="paint0_linear_453_104" x1="9.99804" y1="0" x2="9.99804" y2="30.0032" gradientUnits="userSpaceOnUse">
<stop stop-color="#B247E3"/>
<stop offset="1" stop-color="#9747FF"/>
</linearGradient>
<linearGradient id="paint1_linear_453_104" x1="9.99804" y1="0" x2="9.99804" y2="30.0032" gradientUnits="userSpaceOnUse">
<stop stop-color="#B247E3"/>
<stop offset="1" stop-color="#8A6BDB" stop-opacity="0.987369"/>
</linearGradient>
</defs>
</svg>
