<svg width="25" height="25" viewBox="0 0 25 25" fill="none" xmlns="http://www.w3.org/2000/svg">
<path d="M18.75 2.5H23.75C24.0815 2.5 24.3995 2.6317 24.6339 2.86612C24.8683 3.10054 25 3.41848 25 3.75V23.75C25 24.0815 24.8683 24.3995 24.6339 24.6339C24.3995 24.8683 24.0815 25 23.75 25H1.25C0.918479 25 0.600537 24.8683 0.366116 24.6339C0.131696 24.3995 0 24.0815 0 23.75V3.75C0 3.41848 0.131696 3.10054 0.366116 2.86612C0.600537 2.6317 0.918479 2.5 1.25 2.5H6.25V0H8.75V2.5H16.25V0H18.75V2.5ZM2.5 10V22.5H22.5V10H2.5ZM5 15H11.25V20H5V15Z" fill="url(#paint0_linear_459_128)"/>
<defs>
<linearGradient id="paint0_linear_459_128" x1="12.5" y1="0" x2="12.5" y2="25" gradientUnits="userSpaceOnUse">
<stop stop-color="#9747FF"/>
<stop offset="1" stop-color="#B247E3"/>
</linearGradient>
</defs>
</svg>
