<svg width="35" height="35" viewBox="0 0 35 35" fill="none" xmlns="http://www.w3.org/2000/svg">
<path d="M32.7656 9.98438C32.7656 9.98438 29.9062 4.35938 29.1562 3.9375C28.4062 3.51562 24.2344 3.60938 22.6875 3C22.6875 3 20.7656 5.25 17.9062 5.25C15.0469 5.25 13.125 3 13.125 3C11.5312 3.60938 7.40625 3.51562 6.65625 3.9375C5.90625 4.35938 3 9.98438 3 9.98438C4.59375 13.5938 8.34375 14.3906 8.34375 14.3906L9.84375 12.0469L9.14062 30.1875C12.75 32.2969 15.375 32.4375 17.9062 32.4375C20.4375 32.4375 23.0156 32.2969 26.625 30.2344L25.9219 12.0938L27.4219 14.4375C27.4219 14.3906 31.2188 13.6406 32.7656 9.98438Z" fill="url(#paint0_linear_452_83)"/>
<g clip-path="url(#clip0_452_83)">
<path d="M18.0938 6.375C17.3438 6.375 16.6406 6.23438 15.8906 5.95312C15.3281 5.71875 14.7188 5.4375 14.1562 5.0625C13.2188 4.45313 12.6094 3.79688 12.6094 3.79688L13.5 3.09375L13.0781 3.42188L13.5 3.09375C13.5 3.09375 14.0156 3.65625 14.8594 4.21875C15.6094 4.6875 16.7812 5.29688 18.0938 5.29688C19.5938 5.29688 21.0469 4.5 22.4062 3L23.2969 3.70312C22.4531 4.64062 21.6094 5.34375 20.6719 5.76562C19.875 6.14062 19.0312 6.375 18.0938 6.375ZM9.09375 13.9688C7.45312 13.8281 6.04688 13.0312 4.92188 11.5781C4.26562 10.7344 3.84375 9.89062 3.65625 9.42188L3 10.7344C3.23438 11.2031 3.5625 11.7188 3.98437 12.2344C4.64062 13.0781 5.39062 13.7344 6.1875 14.2031C6.89062 14.625 7.64062 14.9062 8.48438 15L9.09375 13.9688ZM26.9062 14.0156C28.5469 13.875 29.9531 13.0781 31.0781 11.625C31.7344 10.7812 32.1562 9.9375 32.3438 9.46875L33 10.7344C32.7656 11.2031 32.4375 11.7188 32.0156 12.2344C31.3594 13.0781 30.6094 13.7344 29.8125 14.2031C29.1094 14.625 28.3125 14.9062 27.5156 15L26.9062 14.0156Z" fill="#E09DFF" fill-opacity="0.56"/>
</g>
<defs>
<linearGradient id="paint0_linear_452_83" x1="17.8828" y1="3" x2="17.8828" y2="32.4375" gradientUnits="userSpaceOnUse">
<stop stop-color="#B247E3"/>
<stop offset="1" stop-color="#9747FF"/>
</linearGradient>
<clipPath id="clip0_452_83">
<rect width="30" height="30" fill="white" transform="translate(3 3)"/>
</clipPath>
</defs>
</svg>
