<svg width="30" height="30" viewBox="0 0 30 30" fill="none" xmlns="http://www.w3.org/2000/svg">
<path d="M20.7693 0.216974C15.7904 0.216974 11.7543 2.44274 11.7543 5.19236C11.7543 7.94197 15.7916 10.1689 20.7693 10.1689C25.7481 10.1689 29.7843 7.94197 29.7843 5.19236C29.7843 2.44274 25.747 0.21582 20.7693 0.21582V0.216974ZM29.7843 6.67044C29.782 9.42005 25.7481 11.647 20.7693 11.647C15.8043 11.647 11.7774 9.44428 11.7543 6.70736V8.6539C11.7543 9.82851 12.5066 10.9039 13.7389 11.7554C14.9851 12.0947 16.0951 12.5654 17.0193 13.1608C18.1651 13.4516 19.4251 13.6293 20.7693 13.6293C25.7481 13.6293 29.7843 11.4035 29.7843 8.6539V6.67044ZM29.7843 10.132C29.7843 12.8816 25.7481 15.1085 20.7693 15.1085C20.1635 15.1085 19.5751 15.0635 19.0027 15.0001C19.4544 15.6083 19.7624 16.3108 19.9039 17.0551C20.1912 17.0712 20.4751 17.0908 20.7693 17.0908C25.7481 17.0908 29.7843 14.8651 29.7843 12.1154V10.132V10.132ZM9.23082 12.9081C4.25197 12.9081 0.21582 15.1351 0.21582 17.8847C0.21582 20.6343 4.25313 22.8612 9.23082 22.8612C14.2097 22.8612 18.2458 20.6343 18.2458 17.8847C18.2458 15.1351 14.2085 12.9081 9.23082 12.9081ZM29.7843 13.5935C29.782 16.3431 25.7481 18.5701 20.7693 18.5701C20.4797 18.5701 20.1866 18.5493 19.9039 18.5331C19.8912 18.6197 19.8843 18.7351 19.8681 18.8216C19.9258 18.9958 19.9754 19.1677 19.9754 19.3639V20.5177C20.2374 20.5304 20.5004 20.5524 20.7693 20.5524C25.7481 20.5524 29.7843 18.3266 29.7843 15.577V13.5935V13.5935ZM29.7843 17.0551C29.782 19.8047 25.7481 22.0316 20.7693 22.0316C20.4797 22.0316 20.1866 22.0108 19.9039 21.9947C19.8912 22.0812 19.8843 22.1966 19.8681 22.2831C19.9258 22.4562 19.9754 22.6293 19.9754 22.8254V23.9793C20.2374 23.992 20.5004 24.0139 20.7693 24.0139C25.7481 24.0139 29.7843 21.7881 29.7843 19.0385V17.0551V17.0551ZM18.2458 19.3627C18.2435 22.1124 14.2097 24.3393 9.23082 24.3393C4.26582 24.3393 0.238897 22.1366 0.21582 19.3985V21.3462C0.21582 24.0958 4.25082 26.3227 9.23082 26.3227C14.2108 26.3227 18.2458 24.0958 18.2458 21.3462V19.3627ZM18.2458 22.8243C18.2435 25.5739 14.2097 27.8008 9.23082 27.8008C4.26582 27.8008 0.238897 25.5981 0.21582 22.8601V24.8077C0.21582 27.5574 4.25082 29.7843 9.23082 29.7843C14.2108 29.7843 18.2458 27.5574 18.2458 24.8077V22.8243Z" fill="url(#paint0_linear_462_6)"/>
<defs>
<linearGradient id="paint0_linear_462_6" x1="15.0001" y1="0.21582" x2="15.0001" y2="29.7843" gradientUnits="userSpaceOnUse">
<stop stop-color="#9747FF"/>
<stop offset="1" stop-color="#CD61FE"/>
</linearGradient>
</defs>
</svg>
