<svg width="24" height="20" viewBox="0 0 24 20" fill="none" xmlns="http://www.w3.org/2000/svg">
<path d="M24 2.50633C23.1013 2.90715 22.148 3.17026 21.1719 3.28689C22.1887 2.67339 22.9693 1.70188 23.3369 0.54435C22.3704 1.12178 21.3129 1.52862 20.2103 1.74728C19.312 0.783898 18.0324 0.181818 16.6162 0.181818C13.8968 0.181818 11.6921 2.40137 11.6921 5.1389C11.6921 5.52749 11.7357 5.90578 11.8196 6.26869C7.72744 6.06189 4.09931 4.0884 1.67072 1.08923C1.24697 1.82138 1.00416 2.67301 1.00416 3.58137C1.00416 5.30125 1.8735 6.81848 3.19462 7.70749C2.4127 7.68284 1.64798 7.47022 0.964313 7.08738C0.964031 7.10815 0.964031 7.12891 0.964031 7.14977C0.964031 9.55158 2.66128 11.5552 4.91372 12.0106C4.18864 12.2091 3.42809 12.2382 2.69016 12.0955C3.31669 14.065 5.13516 15.4981 7.28972 15.5382C5.60456 16.8677 3.48141 17.6603 1.17459 17.6603C0.777094 17.6603 0.385219 17.6368 0 17.591C2.17903 18.9975 4.76719 19.8182 7.54781 19.8182C16.6047 19.8182 21.5573 12.2645 21.5573 5.7138C21.5573 5.49879 21.5526 5.28501 21.543 5.07246C22.507 4.37088 23.339 3.50191 24 2.50633Z" fill="white"/>
</svg>
