<svg width="24" height="18" viewBox="0 0 24 18" fill="none" xmlns="http://www.w3.org/2000/svg">
<path d="M24 2.39727C23.1013 2.75045 22.148 2.98227 21.1719 3.08503C22.1887 2.54447 22.9693 1.68847 23.3369 0.668552C22.3704 1.17733 21.3129 1.5358 20.2103 1.72847C19.312 0.879621 18.0324 0.349121 16.6162 0.349121C13.8968 0.349121 11.6921 2.30479 11.6921 4.71686C11.6921 5.05925 11.7357 5.39257 11.8196 5.71233C7.72744 5.53012 4.09931 3.79126 1.67072 1.14865C1.24697 1.79375 1.00416 2.54414 1.00416 3.3445C1.00416 4.85991 1.8735 6.19676 3.19462 6.98007C2.4127 6.95835 1.64798 6.77101 0.964313 6.43369C0.964031 6.45199 0.964031 6.47028 0.964031 6.48866C0.964031 8.60492 2.66128 10.3703 4.91372 10.7716C4.18864 10.9465 3.42809 10.9721 2.69016 10.8464C3.31669 12.5817 5.13516 13.8445 7.28972 13.8798C5.60456 15.0513 3.48141 15.7496 1.17459 15.7496C0.777094 15.7496 0.385219 15.7289 0 15.6885C2.17903 16.9278 4.76719 17.6509 7.54781 17.6509C16.6047 17.6509 21.5573 10.9953 21.5573 5.22341C21.5573 5.03397 21.5526 4.8456 21.543 4.65832C22.507 4.04015 23.339 3.27449 24 2.39727Z" fill="url(#paint0_linear_148_70)"/>
<defs>
<linearGradient id="paint0_linear_148_70" x1="12" y1="0.349121" x2="12" y2="17.6509" gradientUnits="userSpaceOnUse">
<stop stop-color="#B831F5" stop-opacity="0.44"/>
<stop offset="1" stop-color="#7BA8FF" stop-opacity="0.8"/>
</linearGradient>
</defs>
</svg>
