<svg width="30" height="23" viewBox="0 0 30 23" fill="none" xmlns="http://www.w3.org/2000/svg">
<path d="M15 2.34C18.4819 2.34 21.6113 3.54188 23.7188 5.70375C25.4529 5.92927 27.0888 6.63742 28.44 7.7475C26.0756 2.77875 21.1781 0 15 0C8.90627 0 3.97502 2.775 1.58252 7.72875C2.8214 6.71759 4.29925 6.04161 5.87439 5.76562C7.94252 3.51 11.2013 2.34 15 2.34Z" fill="url(#paint0_linear_463_20)"/>
<path d="M22.5002 22.5C20.5492 22.5023 18.6746 21.7419 17.2764 20.3812L17.2727 20.3775C17.1111 20.2561 16.9377 20.1512 16.7552 20.0644C16.2057 19.8093 15.606 19.6805 15.0002 19.6875C14.2239 19.6875 13.6333 19.8806 13.2471 20.0644C13.0639 20.1511 12.8899 20.256 12.7277 20.3775L12.7239 20.3812C11.8424 21.2371 10.764 21.8633 9.58366 22.2047C8.40334 22.5461 7.15722 22.5923 5.95487 22.3392C4.75251 22.0861 3.63076 21.5414 2.68823 20.7532C1.7457 19.9649 1.01127 18.9572 0.549518 17.8185C0.0877647 16.6799 -0.0871691 15.4453 0.040098 14.2232C0.167365 13.0011 0.592935 11.829 1.27939 10.8099C1.96584 9.79083 2.89215 8.95602 3.97687 8.37888C5.06159 7.80173 6.27149 7.49993 7.5002 7.5H22.5002C24.4893 7.5 26.397 8.29018 27.8035 9.6967C29.21 11.1032 30.0002 13.0109 30.0002 15C30.0002 16.9891 29.21 18.8968 27.8035 20.3033C26.397 21.7098 24.4893 22.5 22.5002 22.5Z" fill="url(#paint1_linear_463_20)"/>
<defs>
<linearGradient id="paint0_linear_463_20" x1="15.0113" y1="0" x2="15.0113" y2="7.7475" gradientUnits="userSpaceOnUse">
<stop stop-color="#9747FF"/>
<stop offset="1" stop-color="#C24DF7"/>
</linearGradient>
<linearGradient id="paint1_linear_463_20" x1="15" y1="7.5" x2="15" y2="22.5" gradientUnits="userSpaceOnUse">
<stop stop-color="#9747FF"/>
<stop offset="1" stop-color="#C24DF7"/>
</linearGradient>
</defs>
</svg>
