<svg width="42" height="30" viewBox="0 0 42 30" fill="none" xmlns="http://www.w3.org/2000/svg">
<path d="M25.3126 23.4377C25.3126 24.6809 24.8187 25.8732 23.9397 26.7523C23.0606 27.6313 21.8683 28.1252 20.6251 28.1252C19.3819 28.1252 18.1896 27.6313 17.3105 26.7523C16.4315 25.8732 15.9376 24.6809 15.9376 23.4377C15.9395 22.8568 16.0467 22.2811 16.254 21.7385L10.8517 18.2697C10.2013 18.9379 9.36633 19.397 8.45365 19.5881C7.54096 19.7793 6.592 19.6939 5.72811 19.3429C4.86421 18.9919 4.12465 18.3912 3.60397 17.6176C3.08329 16.844 2.80518 15.9327 2.80518 15.0002C2.80518 14.0677 3.08329 13.1564 3.60397 12.3828C4.12465 11.6093 4.86421 11.0085 5.72811 10.6575C6.592 10.3065 7.54096 10.2211 8.45365 10.4123C9.36633 10.6034 10.2013 11.0625 10.8517 11.7307L16.254 8.26192C16.0467 7.7193 15.9395 7.14358 15.9376 6.56271C15.9347 5.47252 16.311 4.41525 17.0019 3.57198C17.6929 2.72871 18.6555 2.15192 19.725 1.94039C20.7945 1.72886 21.9042 1.89575 22.8642 2.41249C23.8241 2.92922 24.5745 3.76365 24.9869 4.77284C25.3993 5.78204 25.4479 6.90321 25.1245 7.94432C24.8011 8.98544 24.1258 9.88172 23.2142 10.4797C22.3026 11.0776 21.2115 11.34 20.1277 11.2219C19.0439 11.1037 18.0349 10.6125 17.2735 9.83224L11.8712 13.301C12.2929 14.3946 12.2929 15.6059 11.8712 16.6994L17.2735 20.1682C17.9244 19.5026 18.7587 19.0458 19.6701 18.8561C20.5815 18.6665 21.5287 18.7525 22.3911 19.1032C23.2534 19.4539 23.9918 20.0535 24.5121 20.8254C25.0324 21.5974 25.3111 22.5068 25.3126 23.4377Z" fill="url(#paint0_linear_463_40)"/>
<path d="M16.6874 23.4377C16.6874 24.6809 17.1813 25.8732 18.0603 26.7523C18.9394 27.6313 20.1317 28.1252 21.3749 28.1252C22.6181 28.1252 23.8104 27.6313 24.6895 26.7523C25.5685 25.8732 26.0624 24.6809 26.0624 23.4377C26.0605 22.8568 25.9533 22.2811 25.746 21.7385L31.1483 18.2697C31.7987 18.9379 32.6337 19.397 33.5464 19.5881C34.459 19.7793 35.408 19.6939 36.2719 19.3429C37.1358 18.9919 37.8754 18.3912 38.396 17.6176C38.9167 16.844 39.1948 15.9327 39.1948 15.0002C39.1948 14.0677 38.9167 13.1564 38.396 12.3828C37.8754 11.6093 37.1358 11.0085 36.2719 10.6575C35.408 10.3065 34.459 10.2211 33.5464 10.4123C32.6337 10.6034 31.7987 11.0625 31.1483 11.7307L25.746 8.26192C25.9533 7.7193 26.0605 7.14358 26.0624 6.56271C26.0653 5.47252 25.689 4.41525 24.9981 3.57198C24.3071 2.72871 23.3445 2.15192 22.275 1.94039C21.2055 1.72886 20.0958 1.89575 19.1358 2.41249C18.1759 2.92922 17.4255 3.76365 17.0131 4.77284C16.6007 5.78204 16.5521 6.90321 16.8755 7.94432C17.1989 8.98544 17.8742 9.88172 18.7858 10.4797C19.6974 11.0776 20.7885 11.34 21.8723 11.2219C22.9561 11.1037 23.9651 10.6125 24.7265 9.83224L30.1288 13.301C29.7071 14.3946 29.7071 15.6059 30.1288 16.6994L24.7265 20.1682C24.0756 19.5026 23.2413 19.0458 22.3299 18.8561C21.4185 18.6665 20.4713 18.7525 19.6089 19.1032C18.7466 19.4539 18.0082 20.0535 17.4879 20.8254C16.9676 21.5974 16.6889 22.5068 16.6874 23.4377Z" fill="url(#paint1_linear_463_40)"/>
<defs>
<linearGradient id="paint0_linear_463_40" x1="14.0706" y1="1.85107" x2="14.0706" y2="28.1252" gradientUnits="userSpaceOnUse">
<stop stop-color="#9747FF"/>
<stop offset="1" stop-color="#CD61FE" stop-opacity="0.88"/>
</linearGradient>
<linearGradient id="paint1_linear_463_40" x1="27.9294" y1="1.85107" x2="27.9294" y2="28.1252" gradientUnits="userSpaceOnUse">
<stop stop-color="#9747FF"/>
<stop offset="1" stop-color="#CD61FE" stop-opacity="0.88"/>
</linearGradient>
</defs>
</svg>
