<svg width="31" height="30" viewBox="0 0 31 30" fill="none" xmlns="http://www.w3.org/2000/svg">
<path d="M12.3185 11.25C13.0745 10.335 14.219 9.75 15.5 9.75C16.781 9.75 17.9255 10.335 18.6815 11.25C19.1792 11.8535 19.4951 12.586 19.5923 13.3622C19.6895 14.1384 19.5639 14.9262 19.2304 15.6338C18.8968 16.3413 18.3689 16.9394 17.7082 17.3583C17.0476 17.7772 16.2815 17.9997 15.4993 17.9997C14.717 17.9997 13.9509 17.7772 13.2903 17.3583C12.6296 16.9394 12.1017 16.3413 11.7681 15.6338C11.4345 14.9262 11.309 14.1384 11.4062 13.3622C11.5034 12.586 11.8193 11.8535 12.317 11.25H12.3185ZM21.125 13.875C21.125 12.927 20.891 12.033 20.477 11.25H26.75C27.3467 11.25 27.919 11.4871 28.341 11.909C28.7629 12.331 29 12.9033 29 13.5V14.25C29 16.6305 27.191 19.068 24.0275 19.926C23.7024 19.342 23.2271 18.8555 22.6509 18.5169C22.0746 18.1783 21.4184 17.9998 20.75 18H19.325C19.8935 17.4739 20.347 16.8359 20.6568 16.1259C20.9666 15.416 21.126 14.6496 21.125 13.875ZM20.75 19.5C21.0457 19.4992 21.3386 19.5569 21.612 19.6697C21.8853 19.7825 22.1337 19.9482 22.3428 20.1572C22.5518 20.3663 22.7175 20.6147 22.8303 20.888C22.9431 21.1614 23.0008 21.4543 23 21.75V22.5C23 25.4565 20.21 28.5 15.5 28.5C10.79 28.5 8 25.4565 8 22.5V21.75C7.99921 21.4543 8.05687 21.1614 8.16966 20.888C8.28245 20.6147 8.44815 20.3663 8.65724 20.1572C8.86633 19.9482 9.11469 19.7825 9.38803 19.6697C9.66137 19.5569 9.9543 19.4992 10.25 19.5H20.75ZM2 14.25C2 16.6305 3.809 19.068 6.9725 19.926C7.2976 19.342 7.77287 18.8555 8.34911 18.5169C8.92535 18.1783 9.58163 17.9998 10.25 18H11.675C11.1065 17.4739 10.653 16.8359 10.3432 16.1259C10.0334 15.416 9.874 14.6496 9.875 13.875C9.875 12.927 10.109 12.033 10.5245 11.25H4.25C3.65326 11.25 3.08097 11.4871 2.65901 11.909C2.23705 12.331 2 12.9033 2 13.5V14.25ZM13.625 5.625C13.625 4.53098 13.1904 3.48177 12.4168 2.70818C11.6432 1.9346 10.594 1.5 9.5 1.5C8.40598 1.5 7.35677 1.9346 6.58318 2.70818C5.8096 3.48177 5.375 4.53098 5.375 5.625C5.375 6.71902 5.8096 7.76823 6.58318 8.54182C7.35677 9.3154 8.40598 9.75 9.5 9.75C10.594 9.75 11.6432 9.3154 12.4168 8.54182C13.1904 7.76823 13.625 6.71902 13.625 5.625ZM25.625 5.625C25.625 4.53098 25.1904 3.48177 24.4168 2.70818C23.6432 1.9346 22.594 1.5 21.5 1.5C20.406 1.5 19.3568 1.9346 18.5832 2.70818C17.8096 3.48177 17.375 4.53098 17.375 5.625C17.375 6.71902 17.8096 7.76823 18.5832 8.54182C19.3568 9.3154 20.406 9.75 21.5 9.75C22.594 9.75 23.6432 9.3154 24.4168 8.54182C25.1904 7.76823 25.625 6.71902 25.625 5.625Z" fill="#B247E3"/>
</svg>
