<svg width="35" height="35" viewBox="0 0 35 35" fill="none" xmlns="http://www.w3.org/2000/svg">
<path d="M8.75 5.9375C8.75 5.02582 9.11216 4.15148 9.75682 3.50682C10.4015 2.86216 11.2758 2.5 12.1875 2.5H22.1875C23.0992 2.5 23.9735 2.86216 24.6182 3.50682C25.2628 4.15148 25.625 5.02582 25.625 5.9375V6.25H28.4375C29.645 6.25 30.625 7.23 30.625 8.4375V12.1875C30.625 13.5919 30.0689 14.9392 29.0783 15.9348C28.0877 16.9303 26.7432 17.4931 25.3387 17.5C24.8981 19.1383 23.9742 20.6058 22.6875 21.7115C21.4008 22.8171 19.8109 23.5096 18.125 23.6987V26.25H21.5625C22.6399 26.25 23.6733 26.678 24.4351 27.4399C25.197 28.2017 25.625 29.2351 25.625 30.3125V30.9375C25.625 31.8 24.925 32.5 24.0625 32.5H10.3125C9.45 32.5 8.75 31.8 8.75 30.9375V30.3125C8.75 29.2351 9.17801 28.2017 9.93988 27.4399C10.7017 26.678 11.7351 26.25 12.8125 26.25H16.25V23.6987C14.5639 23.5096 12.9739 22.8169 11.6872 21.711C10.4005 20.6051 9.47671 19.1372 9.03625 17.4987C7.63206 17.4918 6.28773 16.9292 5.29714 15.9339C4.30656 14.9387 3.75031 13.5917 3.75 12.1875V8.4375C3.75 7.23 4.73 6.25 5.9375 6.25H8.75V5.9375ZM8.75 8.125H5.9375C5.85462 8.125 5.77513 8.15792 5.71653 8.21653C5.65792 8.27513 5.625 8.35462 5.625 8.4375V12.1875C5.62468 13.0462 5.94574 13.8739 6.525 14.5077C7.10426 15.1416 7.89977 15.5357 8.755 15.6125C8.75158 15.5125 8.74992 15.4125 8.75 15.3125V8.125ZM25.62 15.6125C26.4752 15.5357 27.2707 15.1416 27.85 14.5077C28.4293 13.8739 28.7503 13.0462 28.75 12.1875V8.4375C28.75 8.35462 28.7171 8.27513 28.6585 8.21653C28.5999 8.15792 28.5204 8.125 28.4375 8.125H25.625V15.3125C25.625 15.4125 25.6238 15.5125 25.62 15.6125Z" fill="url(#paint0_linear_452_73)"/>
<defs>
<linearGradient id="paint0_linear_452_73" x1="17.1875" y1="2.5" x2="17.1875" y2="32.5" gradientUnits="userSpaceOnUse">
<stop stop-color="#B247E3"/>
<stop offset="1" stop-color="#9747FF"/>
</linearGradient>
</defs>
</svg>
