<svg width="31" height="30" viewBox="0 0 31 30" fill="none" xmlns="http://www.w3.org/2000/svg">
<path d="M13.6373 0C16.8274 0.000189981 19.9084 1.06032 22.3058 2.98265C24.7032 4.90498 26.2531 7.55823 26.6665 10.4475L30.3615 15.756C30.6045 16.1055 30.5553 16.626 29.992 16.848L26.7749 18.105V22.5C26.7749 23.2957 26.4289 24.0587 25.8129 24.6213C25.197 25.1839 24.3616 25.5 23.4905 25.5H20.2077L20.2061 30H5.42629V24.459C5.42629 22.689 4.71029 21.0135 3.38339 19.5015C1.83603 17.7368 0.865968 15.6087 0.584949 13.3624C0.303929 11.1161 0.723392 8.84292 1.79501 6.80485C2.86663 4.76678 4.5468 3.0467 6.64196 1.84277C8.73712 0.638843 11.162 5.57389e-05 13.6373 0ZM12.7669 8.6445C12.5019 8.39374 12.1848 8.1937 11.8342 8.05606C11.4836 7.91842 11.1065 7.84594 10.7249 7.84284C10.3434 7.83974 9.96492 7.90609 9.61171 8.03801C9.25849 8.16994 8.93758 8.36479 8.66769 8.61121C8.3978 8.85763 8.18434 9.15067 8.03977 9.47325C7.8952 9.79583 7.82241 10.1415 7.82565 10.49C7.82889 10.8386 7.90809 11.183 8.05864 11.5033C8.20918 11.8236 8.42805 12.1133 8.70248 12.3555L13.6373 16.8645L18.5721 12.3555C18.8465 12.1133 19.0654 11.8236 19.216 11.5033C19.3665 11.183 19.4457 10.8386 19.4489 10.49C19.4522 10.1415 19.3794 9.79583 19.2348 9.47325C19.0902 9.15067 18.8768 8.85763 18.6069 8.61121C18.337 8.36479 18.0161 8.16994 17.6629 8.03801C17.3097 7.90609 16.9312 7.83974 16.5496 7.84284C16.1681 7.84594 15.791 7.91842 15.4404 8.05606C15.0898 8.1937 14.7727 8.39374 14.5077 8.6445L13.6373 9.4395L12.7669 8.6445Z" fill="url(#paint0_linear_135_92)"/>
<defs>
<linearGradient id="paint0_linear_135_92" x1="15.5" y1="0" x2="15.5" y2="30" gradientUnits="userSpaceOnUse">
<stop stop-color="#B247E3" stop-opacity="0.91"/>
<stop offset="1" stop-color="#9747FF"/>
</linearGradient>
</defs>
</svg>
